<svg xmlns="http://www.w3.org/2000/svg" width="181" height="89" fill="none" viewBox="0 0 181 89">
  <path fill="#F5C800" fill-rule="evenodd" d="M179 10c.678 0 1.346-.045 2-.132V79c-6.531 0-12.088 4.174-14.147 10H14.146C12.087 83.174 6.531 79 0 79V10c6.531 0 12.087-4.174 14.146-10h150.707c2.059 5.826 7.616 10 14.147 10Z" clip-rule="evenodd"/>
  <rect width="150" height="68" x="15.5" y="10.5" stroke="#FF3C1E" rx="4.5"/>
  <path stroke="#FF3C1E" d="M142.177 10v69"/>
  <path fill="#202020" d="M159.771 65.814c0 .704-.155 1.306-.464 1.808-.32.49-.747.895-1.28 1.216a6.01 6.01 0 0 1-1.792.672 9.812 9.812 0 0 1-2.016.207 9.914 9.914 0 0 1-2.032-.207 5.99 5.99 0 0 1-1.792-.672 3.727 3.727 0 0 1-1.264-1.216c-.32-.502-.48-1.105-.48-1.808 0-.704.16-1.307.48-1.808.309-.502.73-.907 1.264-1.217a5.985 5.985 0 0 1 1.792-.672 9.186 9.186 0 0 1 2.032-.223 9.13 9.13 0 0 1 2.016.224 6.005 6.005 0 0 1 1.792.671c.533.31.96.715 1.28 1.216.309.502.464 1.105.464 1.809Zm-1.392 0c0-.46-.128-.832-.384-1.12a2.539 2.539 0 0 0-1.008-.672 5.664 5.664 0 0 0-1.36-.353c-.491-.063-.96-.095-1.408-.095-.47 0-.944.032-1.424.096a5.408 5.408 0 0 0-1.36.352c-.416.16-.752.383-1.008.671-.256.288-.384.662-.384 1.12 0 .448.128.816.384 1.105.256.287.592.511 1.008.671.416.16.869.278 1.36.353.48.064.954.096 1.424.096.448 0 .917-.032 1.408-.096a6.9 6.9 0 0 0 1.36-.352c.416-.16.752-.385 1.008-.672.256-.289.384-.657.384-1.105Zm1.392-9.266c0 .704-.155 1.306-.464 1.808-.32.49-.747.896-1.28 1.216a6.005 6.005 0 0 1-1.792.672 9.805 9.805 0 0 1-2.016.208c-.694 0-1.371-.07-2.032-.208a5.985 5.985 0 0 1-1.792-.672 3.726 3.726 0 0 1-1.264-1.216c-.32-.502-.48-1.104-.48-1.808s.16-1.307.48-1.808a3.54 3.54 0 0 1 1.264-1.216 5.99 5.99 0 0 1 1.792-.672 9.192 9.192 0 0 1 2.032-.224c.682 0 1.354.075 2.016.224a6.01 6.01 0 0 1 1.792.672c.533.31.96.715 1.28 1.216.309.501.464 1.104.464 1.808Zm-1.392 0c0-.459-.128-.832-.384-1.12a2.539 2.539 0 0 0-1.008-.672 5.669 5.669 0 0 0-1.36-.352c-.491-.064-.96-.096-1.408-.096-.47 0-.944.032-1.424.096a5.412 5.412 0 0 0-1.36.352c-.416.16-.752.384-1.008.672-.256.288-.384.661-.384 1.12 0 .448.128.816.384 1.104.256.288.592.512 1.008.672.416.16.869.277 1.36.352.48.064.954.096 1.424.096.448 0 .917-.032 1.408-.096a6.9 6.9 0 0 0 1.36-.352c.416-.16.752-.384 1.008-.672.256-.288.384-.656.384-1.104Zm1.392-9.266c0 .704-.155 1.307-.464 1.808-.32.49-.747.896-1.28 1.216a6.005 6.005 0 0 1-1.792.672 9.805 9.805 0 0 1-2.016.208c-.694 0-1.371-.07-2.032-.208a5.985 5.985 0 0 1-1.792-.672 3.726 3.726 0 0 1-1.264-1.216c-.32-.501-.48-1.104-.48-1.808s.16-1.306.48-1.808a3.54 3.54 0 0 1 1.264-1.216 5.99 5.99 0 0 1 1.792-.672 9.192 9.192 0 0 1 2.032-.224c.682 0 1.354.075 2.016.224a6.01 6.01 0 0 1 1.792.672c.533.31.96.715 1.28 1.216.309.502.464 1.104.464 1.808Zm-1.392 0c0-.458-.128-.832-.384-1.12a2.539 2.539 0 0 0-1.008-.672 5.669 5.669 0 0 0-1.36-.352c-.491-.064-.96-.096-1.408-.096-.47 0-.944.032-1.424.096a5.412 5.412 0 0 0-1.36.352c-.416.16-.752.384-1.008.672-.256.288-.384.662-.384 1.12 0 .448.128.816.384 1.104.256.288.592.512 1.008.672.416.16.869.278 1.36.352.48.064.954.096 1.424.096.448 0 .917-.032 1.408-.096a6.83 6.83 0 0 0 1.36-.352c.416-.16.752-.384 1.008-.672.256-.288.384-.656.384-1.104Zm1.392-9.265c0 .704-.155 1.306-.464 1.808-.32.49-.747.896-1.28 1.216a6.01 6.01 0 0 1-1.792.672 9.805 9.805 0 0 1-2.016.208c-.694 0-1.371-.07-2.032-.208a5.99 5.99 0 0 1-1.792-.672 3.726 3.726 0 0 1-1.264-1.216c-.32-.502-.48-1.104-.48-1.808s.16-1.307.48-1.808a3.53 3.53 0 0 1 1.264-1.216 5.99 5.99 0 0 1 1.792-.672 9.192 9.192 0 0 1 2.032-.224c.682 0 1.354.074 2.016.224a6.01 6.01 0 0 1 1.792.672c.533.309.96.714 1.28 1.216.309.5.464 1.104.464 1.808Zm-1.392 0c0-.46-.128-.832-.384-1.12a2.539 2.539 0 0 0-1.008-.672 5.664 5.664 0 0 0-1.36-.352c-.491-.064-.96-.096-1.408-.096-.47 0-.944.032-1.424.096a5.408 5.408 0 0 0-1.36.352c-.416.16-.752.384-1.008.672-.256.288-.384.66-.384 1.12 0 .448.128.816.384 1.104.256.288.592.512 1.008.672.416.16.869.277 1.36.352.48.064.954.096 1.424.096.448 0 .917-.032 1.408-.096a6.9 6.9 0 0 0 1.36-.352c.416-.16.752-.384 1.008-.672.256-.288.384-.656.384-1.104Zm1.392-9.266c0 .704-.155 1.307-.464 1.808-.32.49-.747.896-1.28 1.216a6.01 6.01 0 0 1-1.792.672 9.812 9.812 0 0 1-2.016.208c-.694 0-1.371-.07-2.032-.208a5.99 5.99 0 0 1-1.792-.672 3.727 3.727 0 0 1-1.264-1.216c-.32-.501-.48-1.104-.48-1.808s.16-1.307.48-1.808c.309-.501.73-.907 1.264-1.216a5.985 5.985 0 0 1 1.792-.672 9.186 9.186 0 0 1 2.032-.224 9.13 9.13 0 0 1 2.016.224 6.005 6.005 0 0 1 1.792.672c.533.31.96.715 1.28 1.216.309.501.464 1.104.464 1.808Zm-1.392 0c0-.459-.128-.832-.384-1.12a2.539 2.539 0 0 0-1.008-.672 5.664 5.664 0 0 0-1.36-.352c-.491-.064-.96-.096-1.408-.096-.47 0-.944.032-1.424.096a5.408 5.408 0 0 0-1.36.352c-.416.16-.752.384-1.008.672-.256.288-.384.661-.384 1.12 0 .448.128.816.384 1.104.256.288.592.512 1.008.672.416.16.869.277 1.36.352.48.064.954.096 1.424.096.448 0 .917-.032 1.408-.096a6.9 6.9 0 0 0 1.36-.352c.416-.16.752-.384 1.008-.672.256-.288.384-.656.384-1.104Zm1.312-5.314-1.056.08-.272-1.632h-7.888l.304 1.568-1.168.224-.992-3.12.144-.288h9.648l.208-1.424 1.072.016v4.576ZM25.604 49.326c.885.5 1.78.953 2.687 1.36.917.395 1.865.733 2.844 1.015.979.27 2.005.479 3.078.625a25.91 25.91 0 0 0 3.453.218c1.469 0 2.719-.093 3.75-.28 1.031-.199 1.87-.464 2.516-.798.656-.343 1.13-.75 1.422-1.218.302-.47.453-.98.453-1.532 0-.885-.37-1.583-1.11-2.093-.74-.521-1.88-.782-3.422-.782-.677 0-1.39.047-2.14.14-.75.084-1.51.178-2.281.282-.76.104-1.516.203-2.266.297-.74.083-1.438.125-2.094.125-1.093 0-2.146-.14-3.156-.422a8.44 8.44 0 0 1-2.672-1.265 6.304 6.304 0 0 1-1.844-2.11c-.458-.844-.687-1.828-.687-2.953 0-.667.088-1.328.265-1.984.188-.657.48-1.282.876-1.875a7.575 7.575 0 0 1 1.562-1.672c.635-.521 1.401-.969 2.297-1.344.906-.375 1.948-.667 3.125-.875 1.187-.219 2.536-.328 4.047-.328 1.093 0 2.192.062 3.297.187 1.104.115 2.177.282 3.218.5 1.052.22 2.063.485 3.032.797.968.302 1.87.64 2.703 1.016l-2.172 4a21.956 21.956 0 0 0-2.219-.828c-.792-.26-1.62-.485-2.484-.672a26.8 26.8 0 0 0-2.688-.438 22.674 22.674 0 0 0-2.812-.171c-1.365 0-2.49.099-3.375.296-.875.198-1.573.454-2.094.766-.52.302-.886.646-1.094 1.031a2.39 2.39 0 0 0-.297 1.125c0 .73.329 1.328.985 1.797.656.459 1.656.688 3 .688.541 0 1.161-.037 1.86-.11.707-.083 1.447-.172 2.218-.265a82.828 82.828 0 0 1 2.375-.25 23.144 23.144 0 0 1 2.36-.125c1.437 0 2.708.161 3.812.484 1.114.323 2.047.786 2.797 1.39a5.756 5.756 0 0 1 1.703 2.173c.385.843.578 1.791.578 2.843 0 1.407-.328 2.662-.984 3.766-.646 1.094-1.574 2.02-2.782 2.781-1.198.75-2.646 1.323-4.343 1.719-1.699.385-3.59.578-5.672.578a30.14 30.14 0 0 1-4.032-.266 30.357 30.357 0 0 1-3.78-.718 30.904 30.904 0 0 1-3.438-1.14 26.179 26.179 0 0 1-3.016-1.47l2.64-4.015Zm30.28-18.64h4.626v8.874a14.23 14.23 0 0 1 3.234-1.266 14.86 14.86 0 0 1 3.766-.468c1.52 0 2.885.224 4.094.672 1.218.448 2.25 1.093 3.093 1.937.844.833 1.49 1.849 1.938 3.047.458 1.198.687 2.547.687 4.047v9.062h-4.609v-8.875c0-.875-.14-1.672-.422-2.39a5.12 5.12 0 0 0-1.234-1.875c-.542-.521-1.203-.922-1.985-1.203-.77-.292-1.645-.438-2.625-.438-1.177 0-2.27.188-3.28.563-1.011.375-1.897.849-2.657 1.421v12.797h-4.625V30.685ZM81.4 47.372a8.8 8.8 0 0 1 .797-3.72 9.142 9.142 0 0 1 2.297-3.03c1-.865 2.203-1.547 3.61-2.047 1.416-.5 3.005-.75 4.765-.75 1.76 0 3.344.25 4.75.75 1.417.5 2.62 1.182 3.61 2.047a8.866 8.866 0 0 1 2.296 3.03 8.653 8.653 0 0 1 .813 3.72 8.652 8.652 0 0 1-.813 3.718 8.866 8.866 0 0 1-2.296 3.032c-.99.864-2.193 1.546-3.61 2.046-1.406.5-2.99.75-4.75.75-1.76 0-3.349-.25-4.765-.75-1.407-.5-2.61-1.182-3.61-2.046a9.143 9.143 0 0 1-2.297-3.032 8.8 8.8 0 0 1-.797-3.718Zm4.86 0c0 .74.146 1.442.437 2.109.302.656.735 1.24 1.297 1.75.573.5 1.266.901 2.078 1.203.823.292 1.755.438 2.797.438 1.042 0 1.969-.146 2.781-.438.823-.302 1.516-.703 2.079-1.203a5.113 5.113 0 0 0 1.75-3.86 5.04 5.04 0 0 0-.454-2.109 4.924 4.924 0 0 0-1.296-1.75c-.563-.51-1.256-.911-2.079-1.203-.812-.302-1.74-.453-2.78-.453-1.043 0-1.975.151-2.798.453-.812.292-1.505.693-2.078 1.203a5.185 5.185 0 0 0-1.297 1.75 5.207 5.207 0 0 0-.437 2.11Zm20.203-9.235h5.359l4.797 11.094 1.406 3.11 1.719-4.032-4.562-10.172h4.5l2.234 5.469 2.234-5.469h4.5l-4.578 10.172 1.735 4.031 1.406-3.11 4.797-11.093h5.359l-8.734 18.453h-5.031l-1.688-3.562-1.687 3.562h-5.032l-8.734-18.453Z"/>
  <path stroke="#FF3C1E" stroke-dasharray="7 7" stroke-linecap="square" d="M.5 10.5v68"/>
</svg>
